<svg viewBox="0 0 900 420" xmlns="http://www.w3.org/2000/svg" role="img"
     aria-label="An angler seated on a match seatbox feeder-fishing: the rod rests on a bank stick, a fish swims to the hookbait, the rod tip knocks down on the bite, the angler picks up the rod and strikes, and the fish is drawn up with the feeder.">
  <title>Feeder fishing — bite, strike, fish on!</title>

  <defs>
    <linearGradient id="sky" x1="0" y1="0" x2="0" y2="1">
      <stop offset="0" stop-color="#bfe6fb"/>
      <stop offset="1" stop-color="#eaf8fe"/>
    </linearGradient>
    <linearGradient id="water" x1="0" y1="0" x2="0" y2="1">
      <stop offset="0"    stop-color="#4aa6d8"/>
      <stop offset="0.55" stop-color="#1f6fa3"/>
      <stop offset="1"    stop-color="#093350"/>
    </linearGradient>
    <linearGradient id="sand" x1="0" y1="0" x2="0" y2="1">
      <stop offset="0" stop-color="#e6d196"/>
      <stop offset="1" stop-color="#c6a866"/>
    </linearGradient>
    <linearGradient id="fish" x1="0" y1="0" x2="0" y2="1">
      <stop offset="0" stop-color="#f0bf63"/>
      <stop offset="1" stop-color="#b87f2c"/>
    </linearGradient>
    <linearGradient id="metal" x1="0" y1="0" x2="0" y2="1">
      <stop offset="0" stop-color="#d4dade"/>
      <stop offset="1" stop-color="#8c969d"/>
    </linearGradient>
    <radialGradient id="sun" cx="0.5" cy="0.5" r="0.5">
      <stop offset="0"   stop-color="#fff4c2"/>
      <stop offset="0.6" stop-color="#ffe680"/>
      <stop offset="1"   stop-color="#ffe680" stop-opacity="0"/>
    </radialGradient>
    <clipPath id="card"><rect x="0" y="0" width="900" height="420" rx="18"/></clipPath>
  </defs>

  <g clip-path="url(#card)">
    <!-- ===== SKY ===== -->
    <rect x="0" y="0" width="900" height="170" fill="url(#sky)"/>
    <circle cx="812" cy="60" r="60" fill="url(#sun)"/>
    <circle cx="812" cy="60" r="26" fill="#fff0a8"/>
    <g fill="#ffffff" opacity="0.85">
      <ellipse cx="360" cy="44" rx="38" ry="14"/>
      <ellipse cx="395" cy="38" rx="26" ry="13"/>
      <ellipse cx="640" cy="34" rx="30" ry="11"/>
      <ellipse cx="668" cy="30" rx="20" ry="10"/>
    </g>

    <!-- ===== WATER ===== -->
    <rect x="0" y="150" width="900" height="270" fill="url(#water)"/>
    <g fill="#ffffff">
      <polygon points="300,150 360,150 250,420 150,420" opacity="0.05"/>
      <polygon points="560,150 600,150 540,420 470,420" opacity="0.05"/>
      <polygon points="740,150 770,150 720,420 660,420" opacity="0.045"/>
    </g>

    <!-- sea bed -->
    <path d="M0,388 Q220,372 430,386 T900,382 L900,420 L0,420 Z" fill="url(#sand)"/>
    <path d="M0,388 Q220,372 430,386 T900,382" fill="none" stroke="#b89a5c" stroke-width="2" opacity="0.5"/>

    <!-- weed -->
    <g stroke-linecap="round" fill="none">
      <g transform="translate(250,392)">
        <animateTransform attributeName="transform" type="rotate" additive="sum"
          values="-4;4;-4" dur="5s" repeatCount="indefinite"/>
        <path d="M0,0 C-8,-26 6,-42 0,-64" stroke="#2f7d4f" stroke-width="5"/>
        <path d="M8,0 C16,-22 4,-40 12,-56" stroke="#3a8f5a" stroke-width="4"/>
      </g>
      <g transform="translate(800,388)">
        <animateTransform attributeName="transform" type="rotate" additive="sum"
          values="3;-3;3" dur="6s" repeatCount="indefinite"/>
        <path d="M0,0 C10,-30 -6,-48 2,-72" stroke="#2f7d4f" stroke-width="5"/>
        <path d="M-10,0 C-18,-24 -4,-44 -14,-60" stroke="#266a42" stroke-width="4"/>
      </g>
    </g>

    <!-- ===== LEFT BANK ===== -->
    <path d="M0,118 Q110,116 178,150 L178,420 L0,420 Z" fill="#6cbf5a"/>
    <path d="M0,118 Q110,116 178,150" fill="none" stroke="#54a644" stroke-width="3"/>
    <g fill="#54a644">
      <path d="M14,116 l4,-12 4,12 z"/>
      <path d="M150,138 l4,-12 4,12 z"/>
      <path d="M166,143 l4,-11 4,11 z"/>
    </g>

    <!-- ===== SEATBOX ===== -->
    <!-- far legs (depth) -->
    <g opacity="0.55" stroke-linecap="round">
      <path d="M76,104 L74,117" stroke="#3a3f44" stroke-width="5"/>
      <path d="M108,104 L104,126" stroke="#3a3f44" stroke-width="5"/>
      <ellipse cx="74" cy="118" rx="6" ry="2.6" fill="#1f2225"/>
      <ellipse cx="104" cy="127" rx="6" ry="2.6" fill="#1f2225"/>
    </g>
    <!-- box body + green trim + drawers -->
    <rect x="50" y="79" width="74" height="6" rx="2" fill="#c2e000"/>
    <rect x="52" y="83" width="70" height="20" fill="#1c1f22"/>
    <line x1="52" y1="93" x2="122" y2="93" stroke="#0f1113" stroke-width="1.4"/>
    <rect x="108" y="86" width="9" height="3.4" rx="1.2" fill="#c2e000"/>
    <rect x="108" y="95" width="9" height="3.4" rx="1.2" fill="#c2e000"/>
    <rect x="50" y="100" width="74" height="6" rx="2" fill="#c2e000"/>
    <!-- cushion / seat -->
    <rect x="46" y="69" width="82" height="13" rx="5" fill="#2a2d30"/>
    <rect x="50" y="71" width="74" height="4" rx="2" fill="#3d4145"/>
    <!-- footplate -->
    <rect x="120" y="101" width="18" height="5" rx="2" fill="#2a2d30"/>
    <rect x="120" y="100" width="18" height="2" fill="#c2e000"/>
    <!-- near legs (front), telescopic with lime clamp + mud feet -->
    <g stroke-linecap="round">
      <path d="M60,106 L57,116" stroke="#2b2f33" stroke-width="6"/>
      <circle cx="58" cy="111" r="2.3" fill="#c2e000"/>
      <ellipse cx="57" cy="117" rx="8" ry="3.2" fill="#1f2225"/>
      <rect x="53" y="114" width="8" height="3" rx="1.4" fill="#c2e000"/>

      <path d="M116,106 L120,129" stroke="#2b2f33" stroke-width="6"/>
      <circle cx="118" cy="117" r="2.3" fill="#c2e000"/>
      <ellipse cx="120" cy="130" rx="8" ry="3.2" fill="#1f2225"/>
      <rect x="116" y="127" width="8" height="3" rx="1.4" fill="#c2e000"/>
    </g>

    <!-- ===== ANGLER (seated, faces the water) ===== -->
    <g stroke-linecap="round">
      <!-- far leg -->
      <path d="M84,73 L116,77" stroke="#27374a" stroke-width="7" fill="none" opacity="0.7"/>
      <path d="M116,77 L122,102" stroke="#27374a" stroke-width="6" fill="none" opacity="0.7"/>
      <!-- near leg -->
      <path d="M86,72 L118,75" stroke="#2c3e55" stroke-width="8" fill="none"/>
      <path d="M118,75 L124,103" stroke="#33495f" stroke-width="7" fill="none"/>
      <ellipse cx="127" cy="104" rx="7" ry="3.4" fill="#22303f"/>
      <!-- torso / jacket -->
      <path d="M79,73 L83,45 Q94,37 103,46 L99,74 Z" fill="#3f7d4f"/>
      <path d="M92,46 L91,74" stroke="#356b43" stroke-width="1.4"/>
      <!-- head + cap -->
      <circle cx="96" cy="33" r="9.5" fill="#e9b48c"/>
      <path d="M86,33 Q96,19 106,32 Z" fill="#c0492f"/>
      <path d="M104,31 L119,29 L118,34 L104,35 Z" fill="#a83c25"/>
      <!-- ARM (rest on knee -> up to the rod on the strike) -->
      <path fill="none" stroke="#46885a" stroke-width="6">
        <animate attributeName="d"
          keyTimes="0; 0.40; 0.48; 0.56; 0.80; 0.88; 1"
          values="M94,44 Q102,60 116,72;
                  M94,44 Q102,60 116,72;
                  M94,44 Q102,60 116,72;
                  M94,43 Q104,48 116,56;
                  M94,43 Q104,48 116,56;
                  M94,44 Q102,60 116,72;
                  M94,44 Q102,60 116,72"
          dur="9s" repeatCount="indefinite"/>
      </path>
      <!-- hand -->
      <circle cx="116" cy="72" r="4" fill="#e9b48c">
        <animateTransform attributeName="transform" type="translate"
          keyTimes="0; 0.40; 0.48; 0.56; 0.80; 0.88; 1"
          values="0 0; 0 0; 0 0; 0 -16; 0 -16; 0 0; 0 0"
          dur="9s" repeatCount="indefinite"/>
      </circle>
    </g>

    <!-- ===== ROD REST (bank stick) ===== -->
    <g stroke-linecap="round">
      <line x1="178" y1="84" x2="178" y2="150" stroke="#2b2f33" stroke-width="3.5"/>
      <rect x="176" y="112" width="4" height="7" rx="1.5" fill="#c2e000"/>
      <path d="M172,80 L178,86 L184,80" fill="none" stroke="#2b2f33" stroke-width="2.6"/>
    </g>

    <!-- ===== LOOSE GROUNDBAIT on the deck ===== -->
    <ellipse cx="556" cy="352" rx="30" ry="16" fill="#e9d4a0" opacity="0.22">
      <animate attributeName="rx" values="22;34;22" dur="3s" repeatCount="indefinite"/>
      <animate attributeName="opacity" values="0.12;0.28;0.12" dur="3s" repeatCount="indefinite"/>
    </ellipse>
    <g fill="#ecdaa6">
      <circle cx="552" cy="358" r="3"><animate attributeName="cy" values="360;300" dur="2.2s" repeatCount="indefinite"/><animate attributeName="opacity" values="0.85;0" dur="2.2s" repeatCount="indefinite"/></circle>
      <circle cx="562" cy="358" r="2.4"><animate attributeName="cy" values="360;296" dur="2.6s" begin="0.5s" repeatCount="indefinite"/><animate attributeName="opacity" values="0.8;0" dur="2.6s" begin="0.5s" repeatCount="indefinite"/></circle>
      <circle cx="548" cy="358" r="2.7"><animate attributeName="cy" values="360;304" dur="2s" begin="1.1s" repeatCount="indefinite"/><animate attributeName="opacity" values="0.8;0" dur="2s" begin="1.1s" repeatCount="indefinite"/></circle>
      <circle cx="568" cy="358" r="2.2"><animate attributeName="cy" values="360;298" dur="2.4s" begin="1.6s" repeatCount="indefinite"/><animate attributeName="opacity" values="0.8;0" dur="2.4s" begin="1.6s" repeatCount="indefinite"/></circle>
    </g>

    <!-- rising bubbles -->
    <g fill="#ffffff" opacity="0.5">
      <circle cx="500" cy="360" r="2.5"><animate attributeName="cy" values="370;155" dur="5s" repeatCount="indefinite"/><animate attributeName="opacity" values="0.5;0" dur="5s" repeatCount="indefinite"/></circle>
      <circle cx="640" cy="360" r="2"><animate attributeName="cy" values="370;155" dur="6.5s" begin="1.5s" repeatCount="indefinite"/><animate attributeName="opacity" values="0.5;0" dur="6.5s" begin="1.5s" repeatCount="indefinite"/></circle>
      <circle cx="710" cy="360" r="1.7"><animate attributeName="cy" values="370;155" dur="6s" begin="3s" repeatCount="indefinite"/><animate attributeName="opacity" values="0.45;0" dur="6s" begin="3s" repeatCount="indefinite"/></circle>
    </g>

    <!-- ===== THE RIG: feeder + hooklink + hook + bait (rides up with the fish) ===== -->
    <g>
      <animate attributeName="opacity"
        keyTimes="0; 0.04; 0.80; 0.84; 0.93; 0.97; 1"
        values=  "0; 1;    1;    0;    0;    1;    1"
        dur="9s" repeatCount="indefinite"/>
      <animateTransform attributeName="transform" type="translate"
        keyTimes="0; 0.44; 0.50; 0.56; 0.72; 0.80; 0.93; 1"
        values="0 0; 0 0; 4 -2; 8 -4; -170 -210; -230 -260; 0 0; 0 0"
        dur="9s" repeatCount="indefinite"/>
      <rect x="538" y="350" width="34" height="24" rx="6" fill="url(#metal)" stroke="#6f787e" stroke-width="1.5"/>
      <g stroke="#6f787e" stroke-width="1.2" opacity="0.8">
        <line x1="547" y1="350" x2="547" y2="374"/>
        <line x1="555" y1="350" x2="555" y2="374"/>
        <line x1="563" y1="350" x2="563" y2="374"/>
        <line x1="538" y1="358" x2="572" y2="358"/>
        <line x1="538" y1="366" x2="572" y2="366"/>
      </g>
      <circle cx="555" cy="349" r="3" fill="none" stroke="#6f787e" stroke-width="1.6"/>
      <path d="M566,360 Q586,372 600,372" fill="none" stroke="#cfd6db" stroke-width="1" opacity="0.85"/>
      <path d="M600,366 L600,374 Q600,381 593,380 Q588,379 590,374"
            fill="none" stroke="#d9dee2" stroke-width="1.6" stroke-linecap="round"/>
      <circle cx="601" cy="373" r="4.5" fill="#ffd24d" stroke="#e0a92f" stroke-width="1"/>
    </g>

    <!-- ===== THE FISH ===== -->
    <g>
      <animate attributeName="opacity"
        keyTimes="0; 0.04; 0.80; 0.84; 0.93; 0.97; 1"
        values=  "0; 1;    1;    0;    0;    1;    1"
        dur="9s" repeatCount="indefinite"/>
      <g>
        <animateTransform attributeName="transform" type="translate"
          keyTimes="0; 0.30; 0.44; 0.50; 0.56; 0.72; 0.80; 0.93; 1"
          values="230 -40; 12 -2; 0 0; 6 -3; 8 -4; -170 -210; -230 -260; 230 -40; 230 -40"
          dur="9s" repeatCount="indefinite"/>
        <g>
          <animateTransform attributeName="transform" type="rotate"
            values="0 676 360; 14 676 360; 0 676 360; -14 676 360; 0 676 360"
            dur="0.5s" repeatCount="indefinite"/>
          <path d="M676,360 L706,343 L706,377 Z" fill="#b87f2c"/>
        </g>
        <ellipse cx="640" cy="360" rx="42" ry="21" fill="url(#fish)"/>
        <path d="M640,339 Q650,326 662,338 Z" fill="#cf8f33"/>
        <path d="M634,381 Q644,392 654,380 Z" fill="#cf8f33"/>
        <path d="M620,360 q-8,-2 -8,2 q0,4 8,2" fill="#a8722a"/>
        <path d="M666,345 q6,15 0,30" fill="none" stroke="#9c6a26" stroke-width="1.5" opacity="0.6"/>
        <circle cx="612" cy="354" r="4.6" fill="#ffffff"/>
        <circle cx="611" cy="354" r="2.4" fill="#23303a"/>
      </g>
    </g>

    <!-- ===== MAIN LINE: rod tip -> feeder ===== -->
    <path fill="none" stroke="#f2f6f8" stroke-width="1.2">
      <animate attributeName="opacity"
        keyTimes="0; 0.04; 0.80; 0.84; 0.93; 0.97; 1"
        values="0; 0.85; 0.85; 0; 0; 0.85; 0.85" dur="9s" repeatCount="indefinite"/>
      <animate attributeName="d"
        keyTimes="0; 0.38; 0.42; 0.45; 0.50; 0.56; 0.72; 0.80; 0.93; 1"
        values="M305,74 C430,150 545,300 555,349;
                M305,74 C430,150 545,300 555,349;
                M296,112 C430,166 545,300 555,349;
                M301,96 C430,158 545,300 555,349;
                M298,108 C430,162 545,300 555,349;
                M284,118 C380,180 500,300 563,345;
                M284,118 C315,124 350,131 385,139;
                M284,118 C297,101 311,95 325,89;
                M305,74 C430,150 545,300 555,349;
                M305,74 C430,150 545,300 555,349"
        dur="9s" repeatCount="indefinite"/>
    </path>

    <!-- ===== THE ROD (on the rest -> bite knock -> picked up & bent) ===== -->
    <g>
      <path fill="none" stroke="#8a5a2b" stroke-width="3.4" stroke-linecap="round">
        <animate attributeName="d"
          keyTimes="0; 0.38; 0.42; 0.45; 0.50; 0.56; 0.80; 0.88; 1"
          values="M128,90 C168,84 250,77 305,74;
                  M128,90 C168,84 250,77 305,74;
                  M128,90 C168,84 272,80 296,112;
                  M128,90 C168,84 264,79 301,96;
                  M128,90 C168,84 270,80 298,108;
                  M116,56 C175,39 231,59 284,118;
                  M116,56 C175,39 231,59 284,118;
                  M128,90 C168,84 250,77 305,74;
                  M128,90 C168,84 250,77 305,74"
          dur="9s" repeatCount="indefinite"/>
      </path>
      <!-- reel (travels with the rod butt) -->
      <g>
        <animateTransform attributeName="transform" type="translate"
          keyTimes="0; 0.38; 0.42; 0.45; 0.50; 0.56; 0.80; 0.88; 1"
          values="0 0; 0 0; 0 0; 0 0; 0 0; -12 -34; -12 -34; 0 0; 0 0"
          dur="9s" repeatCount="indefinite"/>
        <circle cx="150" cy="86" r="6" fill="#2b2b2b"/>
        <circle cx="150" cy="86" r="2" fill="#9a9a9a"/>
      </g>
    </g>

    <!-- ===== "FISH ON!" tag ===== -->
    <g>
      <animate attributeName="opacity"
        keyTimes="0; 0.54; 0.58; 0.80; 0.84; 1"
        values="0; 0; 1; 1; 0; 0" dur="9s" repeatCount="indefinite"/>
      <g transform="translate(122,2)">
        <rect x="0" y="0" width="96" height="28" rx="14" fill="#ffffff" opacity="0.95"/>
        <path d="M14,26 L8,38 L26,26 Z" fill="#ffffff" opacity="0.95"/>
        <text x="48" y="19" text-anchor="middle" font-family="Verdana, Geneva, sans-serif"
              font-size="13" font-weight="700" fill="#1f6fa3">FISH ON! 🎣</text>
      </g>
    </g>

    <!-- ===== WATER SURFACE ===== -->
    <path d="M178,150 Q250,144 320,150 T460,150 T600,150 T740,150 T880,150 T1020,150"
          fill="none" stroke="#dff3fc" stroke-width="2.5" opacity="0.8">
      <animate attributeName="d"
        values="M178,150 Q250,144 320,150 T460,150 T600,150 T740,150 T880,150 T1020,150;
                M178,150 Q250,156 320,150 T460,150 T600,150 T740,150 T880,150 T1020,150;
                M178,150 Q250,144 320,150 T460,150 T600,150 T740,150 T880,150 T1020,150"
        dur="4s" repeatCount="indefinite"/>
    </path>

    <rect x="0" y="0" width="900" height="420" rx="18" fill="none" stroke="#ffffff" stroke-opacity="0.18" stroke-width="2"/>
  </g>
</svg>
